PathFileType	4	(X/Y/Z)	s06c0001.trc
DataRate	CameraRate	NumFrames	NumMarkers	Units	OrigDataRate	OrigDataStartFrame	OrigNumFrames
200	200	4	49	mm	200	250	2000
Frame#	Time	racr			lacr			c7			jug			rlel			rdr			llel			ldr			s2			lic			ric			lasi			rasi			rpsi			lpsi			rgt			lgt			rth1			rth2			rth3			rth4			rlfc			rmfc			rsh1			rsh2			rsh3			rsh4			rlmal			rmmal			rcal			rtoe			rmt5			rmt1			lth1			lth2			lth4			lth3			llfc			lmfc			llmal			lmmal			lcal			lmt1			lmt5			lsh1			lsh2			lsh3			lsh4			ltoe			
		X1	Y1	Z1	X2	Y2	Z2	X3	Y3	Z3	X4	Y4	Z4	X5	Y5	Z5	X6	Y6	Z6	X7	Y7	Z7	X8	Y8	Z8	X9	Y9	Z9	X10	Y10	Z10	X11	Y11	Z11	X12	Y12	Z12	X13	Y13	Z13	X14	Y14	Z14	X15	Y15	Z15	X16	Y16	Z16	X17	Y17	Z17	X18	Y18	Z18	X19	Y19	Z19	X20	Y20	Z20	X21	Y21	Z21	X22	Y22	Z22	X23	Y23	Z23	X24	Y24	Z24	X25	Y25	Z25	X26	Y26	Z26	X27	Y27	Z27	X28	Y28	Z28	X29	Y29	Z29	X30	Y30	Z30	X31	Y31	Z31	X32	Y32	Z32	X33	Y33	Z33	X34	Y34	Z34	X35	Y35	Z35	X36	Y36	Z36	X37	Y37	Z37	X38	Y38	Z38	X39	Y39	Z39	X40	Y40	Z40	X41	Y41	Z41	X42	Y42	Z42	X43	Y43	Z43	X44	Y44	Z44	X45	Y45	Z45	X46	Y46	Z46	X47	Y47	Z47	X48	Y48	Z48	X49	Y49	Z49	
250	1.2500	222.250015	1417.967529	396.530029	224.485672	1428.930786	42.350220	186.284988	1490.046753	216.103058	307.658264	1395.714966	222.944168	242.953476	1200.367432	574.691772	341.852325	1040.591919	765.175598	232.039536	1206.961670	-129.098785	328.279938	1068.987793	-329.538361	113.337830	964.322144	230.369461	265.128937	1007.987610	51.094620	276.260101	987.021912	388.598969	317.946228	955.220093	80.316200	330.608765	945.765076	350.636353	137.289948	998.044067	257.624969	124.097809	994.976440	194.048889	239.785599	871.822205	401.047729	244.005890	896.582336	28.097284	249.334747	749.823669	420.637634	257.877014	660.222107	413.915192	221.775879	582.303650	400.308289	294.409302	655.930908	404.610382	204.517990	473.362122	380.651093	219.699066	450.254242	272.472717	174.005096	353.124664	402.129639	187.889252	267.546967	382.065796	159.515533	186.347565	370.726929	216.387039	269.682983	354.694672	154.640732	99.735718	358.408234	199.753479	121.988602	273.298584	109.507835	65.651459	297.111298	382.081909	75.659332	334.594391	280.642242	43.273342	392.384003	303.894775	59.778976	276.984985	227.524521	764.216675	12.466471	241.765961	677.965210	17.437210	278.048096	674.568726	25.787533	209.551651	595.504333	29.451838	181.155182	477.132538	49.898857	202.512817	455.467102	159.647491	154.471313	99.128410	56.056316	170.930389	121.872215	141.080521	100.945740	58.837193	110.483269	310.704376	52.471771	132.991379	290.022400	51.115440	17.899014	159.049103	370.668030	24.054630	176.589233	285.873383	36.960072	149.559921	201.926804	38.057343	207.331787	286.242645	61.593056	380.323456	71.703323	69.524368	
251	1.2550	222.262329	1417.967773	396.514740	224.515701	1428.926514	42.331959	186.284256	1490.029785	216.124847	307.670898	1395.711426	222.942200	242.970078	1200.365356	574.687439	341.888947	1040.582275	765.146240	232.051636	1206.951416	-129.105148	328.278046	1068.992920	-329.558624	113.354790	964.328064	230.358887	265.158844	1007.997192	51.085331	276.284729	987.022888	388.583435	317.960083	955.223511	80.287590	330.620239	945.758423	350.641998	137.303894	998.045654	257.606659	124.129707	994.968445	194.025772	239.794571	871.812195	401.042664	244.022644	896.588745	28.079603	249.348053	749.815674	420.622742	257.878113	660.221130	413.917633	221.779663	582.294250	400.293671	294.422852	655.919739	404.603058	204.513718	473.353638	380.648041	219.692200	450.249176	272.480286	174.007141	353.098053	402.122711	187.888428	267.549438	382.053741	159.517029	186.349258	370.717987	216.385025	269.687897	354.690552	154.652893	99.731628	358.412354	199.775543	121.995590	273.313751	109.491859	65.658127	297.096588	382.091400	75.668030	334.576935	280.673767	43.256229	392.383209	303.898132	59.795807	276.997711	227.557968	764.214233	12.470375	241.769882	677.954834	17.420452	278.082947	674.566040	25.768482	209.556976	595.499207	29.445251	181.184189	477.131897	49.896160	202.513443	455.478027	159.649216	154.474854	99.134834	56.044846	170.920517	121.884201	141.071899	100.951553	58.849861	110.493195	310.714325	52.468616	132.994690	290.014374	51.117561	17.886808	159.045135	370.666565	24.053846	176.611008	285.857666	36.992168	149.560440	201.937302	38.054821	207.349640	286.241394	61.592800	380.313324	71.693047	69.521225	
252	1.2600	222.279327	1417.967773	396.509277	224.539139	1428.916260	42.320488	186.304474	1490.041260	216.110718	307.695465	1395.702881	222.925186	243.005692	1200.363403	574.692444	341.936005	1040.570312	765.130432	232.051926	1206.962769	-129.120316	328.271576	1069.011841	-329.599640	113.374146	964.326294	230.344284	265.174438	1007.990051	51.077972	276.294128	987.025574	388.589203	317.980988	955.232056	80.287254	330.639374	945.769653	350.639313	137.327332	998.040771	257.587982	124.142235	994.963501	194.009995	239.800537	871.826416	401.040741	244.042145	896.592285	28.064785	249.345657	749.816528	420.619019	257.888489	660.222839	413.902679	221.795807	582.295715	400.285339	294.419373	655.927246	404.602051	204.510925	473.353088	380.658630	219.714844	450.257751	272.471405	174.000839	353.112030	402.117340	187.868042	267.556213	382.047211	159.527359	186.363968	370.710144	216.394882	269.686218	354.697327	154.649536	99.724159	358.410309	199.775085	121.996780	273.314880	109.491852	65.658119	297.096588	382.077484	75.661781	334.582367	280.652924	43.257759	392.379272	303.896423	59.801804	276.997345	227.578156	764.216980	12.454137	241.791275	677.959717	17.408621	278.083740	674.574036	25.750572	209.574402	595.490479	29.453632	181.200577	477.127106	49.894970	202.529175	455.469971	159.621231	154.475143	99.147957	56.051960	170.924591	121.881302	141.078217	100.965347	58.835129	110.490852	310.708588	52.477448	132.987167	290.017944	51.125393	17.893446	159.055862	370.668396	24.044176	176.598434	285.858246	36.991650	149.567169	201.937302	38.068699	207.358582	286.248444	61.591003	380.305847	71.690613	69.523514	
253	1.2650	222.290268	1417.960205	396.497864	224.544373	1428.924194	42.319664	186.317810	1490.037842	216.104523	307.696747	1395.696289	222.905701	243.054916	1200.346069	574.659790	341.967346	1040.569580	765.116211	232.065613	1206.977417	-129.149536	328.265930	1069.013916	-329.619293	113.392662	964.308594	230.337326	265.185242	1007.993408	51.061131	276.297272	987.024109	388.578613	318.003510	955.219727	80.266006	330.656799	945.766968	350.616028	137.352737	998.037109	257.577545	124.168297	994.969177	193.989395	239.807755	871.826050	401.027344	244.061554	896.581299	28.059011	249.370163	749.826904	420.600464	257.903168	660.228699	413.896759	221.810715	582.287048	400.282318	294.422363	655.927002	404.585724	204.517334	473.357391	380.646545	219.706558	450.244141	272.448486	174.006668	353.111115	402.108368	187.871536	267.551117	382.040436	159.520462	186.354752	370.711487	216.395020	269.690491	354.701019	154.642960	99.744560	358.412506	199.776505	121.994499	273.314514	109.507072	65.666969	297.118011	382.071594	75.652122	334.587006	280.640442	43.275352	392.380737	303.888031	59.789257	276.999878	227.583206	764.234863	12.442520	241.801529	677.961914	17.403097	278.091431	674.572754	25.709318	209.566772	595.515259	29.426517	181.183014	477.132843	49.888657	202.518066	455.478912	159.625168	154.493240	99.122581	56.052330	170.928207	121.873611	141.064362	100.953011	58.853039	110.475983	310.722443	52.474140	132.994888	290.025848	51.108959	17.895088	159.060226	370.666962	24.042013	176.597488	285.884521	36.986820	149.570221	201.943161	38.061687	207.352295	286.246735	61.572533	380.320404	71.701637	69.529480	
